<?xml version="1.0" encoding="UTF-8"?>
<svg width="91px" height="20px" viewBox="0 0 91 20" version="1.1" xmlns="http://www.w3.org/2000/svg" xmlns:xlink="http://www.w3.org/1999/xlink">
    <!-- Generator: Sketch 52.6 (67491) - http://www.bohemiancoding.com/sketch -->
    <title>Artboard Copy 2</title>
    <desc>Created with Sketch.</desc>
    <g id="Artboard-Copy-2" stroke="none" stroke-width="1" fill="none" fill-rule="evenodd">
        <path d="M4.72,14.996 L11.22,14.996 L11.22,19 L0.56,19 L0.56,0.8 L4.72,0.8 L4.72,14.996 Z M22.218,6 L26.118,6 L26.118,19 L22.218,19 L22.218,17.778 C21.36,18.766 20.086,19.364 18.344,19.364 C14.938,19.364 12.13,16.374 12.13,12.5 C12.13,8.626 14.938,5.636 18.344,5.636 C20.086,5.636 21.36,6.234 22.218,7.222 L22.218,6 Z M19.124,15.672 C20.918,15.672 22.218,14.45 22.218,12.5 C22.218,10.55 20.918,9.328 19.124,9.328 C17.33,9.328 16.03,10.55 16.03,12.5 C16.03,14.45 17.33,15.672 19.124,15.672 Z M36.752,5.636 C40.158,5.636 42.966,8.626 42.966,12.5 C42.966,16.374 40.158,19.364 36.752,19.364 C35.01,19.364 33.736,18.766 32.878,17.778 L32.878,19 L28.978,19 L28.978,0.8 L32.878,0.8 L32.878,7.222 C33.736,6.234 35.01,5.636 36.752,5.636 Z M35.972,15.672 C37.766,15.672 39.066,14.45 39.066,12.5 C39.066,10.55 37.766,9.328 35.972,9.328 C34.178,9.328 32.878,10.55 32.878,12.5 C32.878,14.45 34.178,15.672 35.972,15.672 Z M48.66,14.06 C49.154,15.412 50.35,15.88 51.78,15.88 C52.846,15.88 53.756,15.464 54.276,14.892 L57.396,16.686 C56.122,18.454 54.198,19.364 51.728,19.364 C47.282,19.364 44.526,16.374 44.526,12.5 C44.526,8.626 47.334,5.636 51.442,5.636 C55.238,5.636 58.046,8.574 58.046,12.5 C58.046,13.046 57.994,13.566 57.89,14.06 L48.66,14.06 Z M48.582,11.148 L54.172,11.148 C53.756,9.64 52.586,9.094 51.416,9.094 C49.934,9.094 48.946,9.822 48.582,11.148 Z M60.256,19 L60.256,0.02 L64.156,0.02 L64.156,19 L60.256,19 Z" id="Label" fill="#525C5D"></path>
        <path d="M69,0 L73.32,0 L73.32,18.9 L69,18.9 L69,0 Z M83.715,19.278 C79.557,19.278 76.425,16.848 76.425,12.798 L76.425,0 L80.745,0 L80.745,12.42 C80.745,13.851 81.42,15.066 83.715,15.066 C86.01,15.066 86.685,13.851 86.685,12.42 L86.685,0 L91.005,0 L91.005,12.798 C91.005,16.848 87.873,19.278 83.715,19.278 Z" id="IU" fill="#696FFB"></path>
    </g>
</svg>