<svg version="1.1" xmlns="http://www.w3.org/2000/svg" xmlns:xlink="http://www.w3.org/1999/xlink" width="80" height="50" viewBox="15 50 70 50">
    <style type="text/css">
        svg {
            cursor: pointer;
        }
    </style>
    <g id="table">
        <image width="100" height="100" x="25" xlink:href="basic/rectangular-xx-long-table.svg" transform="rotate(90,50,50)"/>
    </g>
    <g id="chairs">
        <image width="30" height="30" xlink:href="basic/chair-square-table.svg" x="3" y="56.5"/>
        <image width="30" height="30" xlink:href="basic/chair-square-table.svg" x="19" y="56.5"/>
        <image width="30" height="30" xlink:href="basic/chair-square-table.svg" x="35" y="56.5"/>
        <image width="30" height="30" xlink:href="basic/chair-square-table.svg" x="51" y="56.5"/>
        <image width="30" height="30" xlink:href="basic/chair-square-table.svg" x="67" y="56.5"/>
        <image width="30" height="30" xlink:href="basic/chair-square-table.svg" x="3" y="6.5" transform="rotate(180,50,50)"/>
        <image width="30" height="30" xlink:href="basic/chair-square-table.svg" x="19" y="6.5" transform="rotate(180,50,50)"/>
        <image width="30" height="30" xlink:href="basic/chair-square-table.svg" x="35" y="6.5" transform="rotate(180,50,50)"/>
        <image width="30" height="30" xlink:href="basic/chair-square-table.svg" x="51" y="6.5" transform="rotate(180,50,50)"/>
        <image width="30" height="30" xlink:href="basic/chair-square-table.svg" x="67" y="6.5" transform="rotate(180,50,50)"/>
    </g>
</svg>
